<?xml version="1.0" encoding="utf-8"?>
<!-- Generator: Adobe Illustrator 28.2.0, SVG Export Plug-In . SVG Version: 6.00 Build 0)  -->
<svg version="1.1" id="Layer_1" xmlns="http://www.w3.org/2000/svg" xmlns:xlink="http://www.w3.org/1999/xlink" x="0px" y="0px"
	 viewBox="0 0 1203.3 500" style="enable-background:new 0 0 1203.3 500;" xml:space="preserve">
<style type="text/css">
	.st0{fill:url(#SVGID_1_);}
</style>
<g>
	
		<linearGradient id="SVGID_1_" gradientUnits="userSpaceOnUse" x1="334.5898" y1="244.4326" x2="780.8301" y2="244.4326" gradientTransform="matrix(1 0 0 -1 0 500)">
		<stop  offset="0" style="stop-color:#3E5CBF"/>
		<stop  offset="1" style="stop-color:#A32ACA"/>
	</linearGradient>
	<path class="st0" d="M772.8,100.8c-8.3-8.3-22.1-8.9-32.4-1.2c-1.7,1.3-3.1,1.9-5.3,1.1c-22-8-44-16-66.1-23.8
		c-26.9-9.5-53.8-18.9-80.8-28.3c-3.4-1.2-5.8-2.5-6.9-6.7c-2.8-11-12.1-17.7-23.3-17.8c-11.2-0.2-20.4,6.2-23.5,17.3
		c-1.3,4.6-3.9,6.3-7.9,7.7c-22.9,8-45.8,16.1-68.7,24.2c-25.8,9.2-51.7,18.4-77.4,27.7c-2.3,0.8-3.6,0-5.3-1.3
		c-11.2-8.9-26.7-6.9-35.3,4.5s-6.7,28.1,5.5,35.3c6.6,3.8,7.8,8.4,7.6,14.7c0,0.8,0,1.5,0.1,2.3c1.5,24.3,4.1,48.4,8.9,72.3
		c5.3,26.3,12.8,52,23.2,77c-0.6,0.5-1,0.9-1.4,1.2c-8.8,7.4-11.5,19.2-6.8,29.2c4.9,10.3,15.3,15.4,26.9,12.9
		c2.3-0.5,3.3,0.3,4.5,2c6.1,8.4,11.8,17.2,18.5,25.1c29.2,34.6,64.1,62.2,103.8,83.8c2.9,1.6,4,3.3,4.4,6.6
		c0.9,7.3,4.1,13.4,10.9,17c14.4,7.8,33.4,2.6,36.6-18.4c0.4-2.5,1.4-3.8,3.5-5.2c12.5-7.6,25.2-15,37.2-23.4
		c32.9-23.3,61.2-51.3,83.3-85.2c1.3-2,2.5-2.4,4.9-2.1c3.7,0.4,7.6,0.4,11.1-0.5c9-2.2,14.9-8.3,17.1-17.2
		c2.3-9.2,0.2-17.6-7.3-24.2c-0.8-0.8-1.5-2.6-1.2-3.6c3.4-10.1,7.4-20,10.7-30.1c8.5-26,14.2-52.7,17.1-79.9
		c1.7-15.8,2.9-31.7,4.4-47.5c0.1-1.4,1.5-2.9,2.6-3.9c3.1-2.7,7.1-4.6,9.5-7.7C783.7,124.6,782.2,110.1,772.8,100.8z M597.8,70.1
		C634.3,83,670.7,96,707.2,108.9c6.4,2.3,12.7,4.7,19.1,6.7c3.3,1,3.2,3.7,3.1,6c-0.1,1-1.8,2.4-3,2.8
		c-13.4,5.2-26.9,10.2-40.4,15.3c-2.1,0.8-3.5,0.7-5.3-0.9c-6.5-6.1-14-7.3-22.2-4c-1.1,0.4-3.1,0.2-3.9-0.5
		c-24.5-22.8-48.8-45.8-73.2-68.7c-0.2-0.2-0.4-0.6-1.1-1.6C586.7,66.3,592.3,68.1,597.8,70.1z M573.3,176.7
		c0.1,8.8-6.7,15.9-15.1,16c-8.9,0.1-16.2-7.3-16.2-16.3c0-7.8,7.8-15.4,15.6-15.4C565.8,161,573.2,168.5,573.3,176.7z M389.1,115.9
		c22.9-8.1,45.7-16.4,68.6-24.5c25.2-9,50.5-18,75.7-26.9c0.3-0.1,0.7,0,1.7,0c-1,1.2-1.6,2-2.4,2.7c-23.4,21.9-46.9,43.8-70.2,65.7
		c-2.3,2.1-4,2.6-7.2,1.4c-7.6-3-14.6-0.9-20.4,4.5c-1.9,1.8-3.2,1.8-5.5,0.9c-13.3-5.1-26.7-10.1-40.1-15c-2.1-0.8-3.5-1.4-3.4-4.1
		C385.9,118.1,386.7,116.8,389.1,115.9z M475.4,400.1c-20.4-17.6-38.5-37.2-52.9-61.5c10.5,2.9,20,5.6,29.5,8.2
		c27.7,7.7,55.5,15.4,83.2,23.1c1.3,0.4,2.8,0.7,3.8,1.5c1.7,1.3,1,4.1-1.1,5c-19.3,8.1-38.6,16.2-57.9,24.1
		C478.7,401.1,476.4,401,475.4,400.1z M550.8,441.5c-1.1,0.3-2.3,0.7-3,1.5c-3.7,4.2-7,2.4-11,0.2c-16.7-9.5-32.8-19.8-47.8-31.6
		c-0.7-0.5-1.5-0.9-2.9-1.8c2.8-1.3,4.4-2.1,6.1-2.8c16.2-6.7,32.4-13.4,48.5-20.2c2.5-1.1,4.3-0.5,6.9,0.3
		c6.4,2.1,6.8,6.4,6.7,12.1c-0.3,12.1,0,24.3,0.3,36.4C554.6,438.6,554,440.7,550.8,441.5z M546.7,358.8c-2.9,3.2-5.5,3.5-9.5,2.4
		c-26.9-7.9-53.8-15.5-80.8-23.2c-9.1-2.6-18.3-5.2-27.4-7.9c-1-0.3-2-0.8-2.9-1.9h263.3c0.1,0.1,0.1,0.3,0.1,0.4
		c-4.5,1.5-8.9,3-13.4,4.3c-30.8,9-61.5,18-92.3,27c-0.1,0-0.2,0.1-0.3,0.1c-5.1,2.1-9.2,2.1-13.8-2.6
		C563.7,351.4,552.7,352.3,546.7,358.8z M545.5,295c-0.1,0-0.2,0-0.2,0c0.3-5.5,0.3-11,1-16.5s5.9-9.8,11.1-10.1
		c5.2-0.3,10.4,3.6,12,9c0.5,1.7,0.8,3.4,0.8,5.2c0,8.5-0.2,17-0.2,25.5c0,2.3-1,3.1-3.2,3.1c-6.1,0-12.3,0-18.4,0.1
		c-2.3,0-3-1-3-3.2C545.6,303.8,545.5,299.4,545.5,295z M612.3,423.1c-11.3,7.6-23,14.6-34.5,22c-1.8,1.2-3,1.1-4.6-0.3
		c-1.7-1.4-3.6-3-5.7-3.6c-3.2-0.9-4-2.6-4-5.7c0.2-13.9,0.1-27.8,0.1-41.7c0-2.2,0.9-3.2,2.6-4.7c5.1-4.2,9.7-3.1,15.1-0.8
		c16.1,6.8,32.4,13.2,49.8,20.3C624.4,413.9,618.6,418.9,612.3,423.1z M674.5,365c-9.7,11.3-20.4,21.7-30.6,32.6
		c-2.5,2.7-4.8,2.9-8.3,1.4c-17.9-7.5-35.9-14.7-53.8-22.1c-1.5-0.6-2.6-2.2-3.8-3.3c1.4-1,2.6-2.5,4.1-3
		c34.2-9.9,68.3-19.7,102.5-29.5c2.2-0.6,4.6-1.1,6.8-1.7c0.3,0.4,0.6,0.7,0.9,1.1C686.5,348.7,681.1,357.4,674.5,365z M745.7,147.8
		c-1.8,17.1-3.2,34.2-5.2,51.2c-2.5,21.3-7,42.2-13.4,62.7c-3.3,10.8-7.4,21.3-11.1,31.9c-0.4,1.1-1,2.2-1.8,4.1
		c-0.6-1.7-0.9-2.4-1-3.2c-5-22.2-10.1-44.4-15.2-66.6c-0.5-2.1-0.4-5-3.8-5.2c-4-0.3-6.3,2.4-5.5,6.8c1.5,7.9,3.2,15.7,4.9,23.5
		c3.5,15.8,6.9,31.5,10.5,47.3c0.6,2.5,0.1,4-2.1,5.3c-1.3,0.7-2.7,1.6-3.5,2.8c-4.4,6.8-10.5,3.8-16.2,3c-0.8-0.1-1.8-2-1.9-3.1
		c-0.3-4.4-0.2-8.8-0.2-13.1c0-23.1,0-46.1,0.1-69.2c0-3.1-0.8-4.1-4-4c-6.9,0.2-13.8,0.1-21.3,0.1c0,4.9,0,9.5,0,14
		c0,23.4-0.1,46.9-0.1,70.3c0,5.1,0,5.1-5.2,5.1c-3.3,0-6.5-0.1-9.8,0c-2.8,0.2-3.7-0.9-3.7-3.7c0-18.4-0.2-36.9-0.3-55.3
		c0-9.2,0-18.3,0.2-27.5c0.1-2.3-0.6-3.1-2.9-3.1c-6,0.1-12,0.1-18-0.1c-3.4-0.2-4.2,1.1-4.2,4.3c0.1,26.7,0.1,53.4,0.1,80.1
		c0,5,0,5-4.9,5.1c-3.8,0.1-7.5,0-11.3,0c-2.1,0-3.1-0.7-3.1-3.1c0-15.9,0-31.8-0.1-47.7c0-11.6-0.1-23.3-0.1-35
		c0-2.7-1-3.8-3.8-3.7c-5.9,0.2-12-0.8-17.6,0.2c-8.6,1.7-16.8,1.6-25.4,0c-5.6-1.1-11.5-0.1-17.3-0.3c-3.2-0.1-4.1,1-4,4.1
		c0.1,21.2,0.1,42.4,0.1,63.6c0,5.9-0.2,11.8,0,17.7c0.1,3.4-1.2,4.4-4.3,4.3c-3.8-0.2-7.5-0.2-11.3,0.1c-3,0.2-3.9-1-3.9-3.9
		c0.1-20.1,0.1-40.1,0.1-60.2c0-7.3-0.1-14.5,0-21.8c0.1-2.7-0.8-3.8-3.6-3.7c-5.8,0.2-11.5,0.2-17.3,0c-3.4-0.2-4.2,1-4.2,4.3
		c0.1,26.7,0.1,53.4,0.1,80.1c0,5.1,0,5.2-5.2,5.2c-3.1,0-6.3-0.3-9.4,0c-3.6,0.3-4.4-1.4-4.4-4.6c0.1-19.4,0-38.9,0-58.3
		c0-7.7-0.1-15.3,0.1-22.9c0.1-2.8-0.8-3.8-3.6-3.7c-5.9,0.2-11.8,0.2-17.7,0c-2.8-0.1-4,0.7-4,3.8c0.1,16.6,0.1,33.1,0.1,49.7
		c0,10.9-0.1,21.8,0,32.7c0,2.5-0.8,3.7-3.3,3.9c-2.8,0.2-5.5,0.7-8.2,0.9c-0.8,0.1-1.9-0.1-2.5-0.6c-3.2-2.5-6.5-5.1-9.5-7.9
		c-0.6-0.6-0.6-2.3-0.4-3.3c3.4-15.8,6.9-31.5,10.4-47.3c1.8-8.1,3.5-16.1,5.2-24.2c0.6-2.9-0.2-5.3-3.3-6.3c-3.2-1.1-4.7,0-5.6,4
		c-2.9,12.8-5.8,25.6-8.7,38.5c-2.2,10-4.5,20-6.8,30c-0.1,0.7-0.5,1.3-0.9,2.5c-0.7-1-1.2-1.5-1.5-2.1
		c-9.2-22.9-16.4-46.5-21.1-70.8c-5.1-25.8-7.6-51.8-9.2-77.9c-0.2-3.2,0.6-5,3.4-6.7c2.6-1.6,4.6-4.2,7.1-6.1
		c1-0.8,2.7-1.5,3.8-1.1c13.8,4.9,27.5,10,41.3,15.1c2.1,0.8,3.5,1.7,3.6,4.5c0.1,8,4.4,13.5,11.4,16.7c7.6,3.5,14.8,1.7,20.9-3.7
		c5.7-5,7.4-11.6,5.3-18.8c-1-3.5-0.2-5.3,2.3-7.6c20.7-19.1,40.9-38.1,61.1-57c4.2-3.9,8.6-7.7,12.7-11.7c1.8-1.7,3.3-1.3,5-0.3
		c2,1.2,5,1,5,4.6c0.1,18.3,0.3,36.6,0.2,54.9c0,1.3-1.4,3.2-2.7,3.9c-17.4,8.8-35,17.4-52.5,26c-18.7,9.3-37.5,18.6-56.2,27.9
		c-6.6,3.3-13.2,6.6-20,9.6c-3.1,1.4-4.8,3.1-4.4,6.8c0.3,2.6,0.1,5.2,0.1,8.3h281.1c0-4,0.3-7.6-0.2-11.2c-0.2-1.3-1.9-2.8-3.3-3.5
		c-13.4-6.8-26.8-13.5-40.3-20.2c-17.6-8.7-35.3-17.4-52.9-26.1c-11.4-5.7-22.8-11.5-34.4-16.9c-3.7-1.7-5.1-3.8-5.1-7.9
		c0.3-16.9,0.3-33.8,0-50.8c-0.1-5,3.9-5,6.6-6.4c1-0.5,3.4,0.7,4.5,1.8c24.6,22.7,49.1,45.5,73.7,68.2c2.1,2,2.7,3.6,1.9,6.4
		c-2.1,7.2-1,14,4.8,19.3c5.9,5.3,12.8,7.3,20.5,4.1c7.5-3,12-8.6,12.6-16.7c0.2-2.8,1.2-3.9,3.6-4.8c13.3-4.9,26.5-9.9,39.7-14.9
		c2.1-0.8,3.5-0.8,5.1,1.3c1.9,2.4,4.3,4.6,7,6.1C745.3,142.5,746,144.6,745.7,147.8z"/>
</g>
</svg>
